<?xml version="1.0" standalone="no"?>
<!DOCTYPE svg PUBLIC "-//W3C//DTD SVG 20010904//EN"
 "http://www.w3.org/TR/2001/REC-SVG-20010904/DTD/svg10.dtd">
<svg version="1.0" xmlns="http://www.w3.org/2000/svg"
 width="300.000000pt" height="125.000000pt" viewBox="0 0 300.000000 125.000000"
 preserveAspectRatio="xMidYMid meet">
<metadata>
Created by potrace 1.10, written by Peter Selinger 2001-2011
</metadata>
<g transform="translate(0.000000,125.000000) scale(0.100000,-0.100000)"
fill="#000000" stroke="none">
<path d="M458 956 c-25 -18 -22 -38 7 -70 l25 -27 0 -219 0 -219 -30 -34 -30
-34 21 -19 c30 -27 168 -33 204 -10 31 21 31 34 0 70 -23 26 -25 37 -22 93 2
34 6 65 9 69 3 3 34 12 67 20 70 16 125 41 169 79 16 14 33 25 36 25 3 0 6
-58 6 -129 0 -123 -1 -131 -25 -159 -31 -37 -31 -47 -3 -66 19 -14 120 -15
872 -9 471 3 859 10 869 15 24 12 21 45 -5 59 -16 9 -208 10 -775 5 -746 -6
-753 -6 -773 14 -16 16 -20 33 -20 86 0 84 11 104 56 104 24 0 47 -9 74 -31
32 -26 41 -29 59 -20 12 7 21 13 21 14 10 47 9 124 0 147 -17 42 -37 44 -76
10 -37 -32 -102 -42 -122 -17 -13 16 -13 148 0 165 6 6 32 12 60 12 44 0 53
-4 97 -45 45 -42 49 -44 69 -29 12 8 22 26 22 38 0 13 6 29 13 35 10 8 198 11
647 11 562 0 636 2 658 16 l24 16 -23 24 -22 24 -854 0 c-748 0 -857 -2 -877
-15 -21 -14 -29 -14 -82 0 -76 20 -321 21 -346 1z m301 -27 c49 -9 73 -20 100
-45 34 -30 36 -36 36 -92 0 -46 -5 -67 -21 -89 -30 -40 -129 -89 -213 -103
l-71 -13 0 -89 c0 -101 10 -128 45 -128 14 0 25 -6 25 -12 0 -10 -27 -13 -100
-13 -73 0 -100 3 -100 13 0 6 11 12 25 12 14 0 29 8 35 19 13 25 14 460 1 495
-6 14 -19 26 -32 28 -12 2 -24 8 -26 13 -5 15 219 17 296 4z m1876 1 c4 -7
-223 -10 -674 -10 -375 0 -681 -3 -681 -7 1 -5 5 -27 9 -50 7 -34 5 -43 -5
-43 -8 0 -14 7 -14 16 0 8 -13 29 -29 45 -28 28 -33 29 -120 29 l-90 0 -3
-126 c-2 -69 -2 -126 -1 -127 1 -1 40 -1 88 1 86 3 87 4 98 33 20 51 32 33 32
-46 0 -53 -4 -75 -12 -75 -7 0 -13 6 -13 14 0 34 -30 46 -113 46 l-82 0 5
-127 c5 -125 5 -127 30 -134 14 -4 375 -4 803 -1 587 4 777 2 777 -6 0 -9
-132 -13 -517 -14 -1158 -5 -1233 -4 -1233 9 0 7 11 13 24 13 45 0 47 12 44
281 l-3 253 -32 8 c-18 5 -33 13 -33 18 0 14 1737 14 1745 0z"/>
<path d="M590 759 l0 -151 33 7 c106 22 161 50 184 95 16 31 17 111 2 143 -18
41 -59 57 -143 57 l-76 0 0 -151z m150 106 c71 -36 56 -146 -26 -185 -73 -36
-79 -30 -81 80 -1 53 3 100 9 108 14 16 63 15 98 -3z"/>
<path d="M1594 799 c-17 -33 -12 -80 11 -99 16 -13 45 -1 83 33 27 25 28 37 2
69 -29 37 -76 36 -96 -3z m81 -29 c0 -18 -6 -26 -22 -28 -13 -2 -23 -10 -23
-18 0 -8 -4 -14 -10 -14 -5 0 -10 21 -10 46 0 45 0 45 33 42 27 -2 32 -7 32
-28z"/>
<path d="M1630 770 c0 -15 5 -20 18 -18 9 2 17 10 17 18 0 8 -8 16 -17 18 -13
2 -18 -3 -18 -18z"/>
<path d="M1906 817 c-18 -13 -18 -16 -2 -64 26 -79 47 -78 78 4 16 42 16 43
-5 58 -26 19 -48 19 -71 2z m62 -25 c-14 -2 -18 -13 -18 -43 0 -21 -4 -39 -10
-39 -5 0 -10 18 -10 40 0 30 -4 40 -16 40 -8 0 -13 4 -10 8 3 4 22 6 43 3 21
-3 30 -6 21 -9z"/>
<path d="M1767 802 c-53 -58 -38 -108 32 -106 66 3 75 18 45 77 -26 50 -50 59
-77 29z m60 -47 c16 -35 17 -45 7 -45 -8 0 -14 5 -14 10 0 15 -48 12 -53 -2
-2 -7 -7 -10 -11 -6 -8 7 30 88 42 88 5 0 17 -20 29 -45z"/>
<path d="M2038 802 c-15 -18 -16 -78 -1 -93 19 -19 94 -15 109 6 18 24 18 56
1 79 -17 23 -92 29 -109 8z m92 -42 c0 -30 -4 -50 -11 -50 -6 0 -9 9 -6 20 4
16 0 20 -19 20 -17 0 -24 -6 -24 -20 0 -11 -4 -20 -10 -20 -5 0 -10 20 -10 45
0 25 5 45 10 45 6 0 10 -8 10 -18 0 -11 7 -18 20 -18 12 0 20 7 20 16 0 15 8
30 17 30 2 0 3 -22 3 -50z"/>
<path d="M1461 626 c-18 -21 -10 -97 11 -110 14 -8 23 -5 48 19 29 28 37 56
24 89 -8 20 -67 21 -83 2z m79 -16 c0 -5 -11 -10 -25 -10 -14 0 -25 -4 -25
-10 0 -5 11 -10 25 -10 14 0 25 -4 25 -10 0 -5 -11 -10 -25 -10 -16 0 -25 -6
-25 -15 0 -8 -4 -15 -10 -15 -5 0 -10 20 -10 45 0 45 0 45 35 45 19 0 35 -4
35 -10z"/>
<path d="M1704 619 c-18 -20 -16 -66 4 -90 17 -21 87 -23 107 -3 18 19 20 64
2 88 -18 25 -92 29 -113 5z m51 -26 l24 -28 1 28 c0 15 5 27 10 27 6 0 10 -20
10 -45 0 -52 -10 -56 -39 -17 l-20 27 -1 -27 c0 -16 -4 -28 -10 -28 -5 0 -10
20 -10 45 0 25 2 45 5 45 3 0 17 -12 30 -27z"/>
<path d="M1872 628 c-19 -19 -15 -92 7 -112 31 -28 86 -12 106 30 18 38 10 66
-25 84 -25 14 -73 13 -88 -2z m86 -20 c7 -7 12 -21 12 -33 0 -30 -19 -45 -57
-45 -32 0 -33 1 -33 45 0 44 1 45 33 45 18 0 38 -5 45 -12z"/>
<path d="M1900 570 c0 -16 4 -30 9 -30 25 0 41 14 41 36 0 19 -5 24 -25 24
-21 0 -25 -5 -25 -30z"/>
<path d="M2036 618 c-22 -31 -20 -74 4 -98 43 -43 92 -14 89 51 -1 24 -7 50
-12 57 -16 20 -64 14 -81 -10z m84 -8 c0 -5 -11 -10 -25 -10 -14 0 -25 -4 -25
-10 0 -5 9 -10 20 -10 11 0 20 -5 20 -11 0 -6 -9 -8 -20 -4 -14 4 -20 2 -20
-9 0 -8 12 -16 28 -19 22 -3 20 -4 -10 -6 l-38 -1 0 45 c0 45 0 45 35 45 19 0
35 -4 35 -10z"/>
<path d="M2186 618 c-35 -50 -8 -108 50 -108 41 0 54 16 54 67 0 32 -5 45 -19
53 -32 17 -69 12 -85 -12z m80 -45 c0 -24 -3 -43 -8 -43 -4 0 -8 5 -8 10 0 6
-7 10 -15 10 -8 0 -15 -4 -15 -10 0 -5 -4 -10 -10 -10 -5 0 -10 21 -10 46 0
45 0 45 33 42 30 -3 32 -5 33 -45z"/>
<path d="M1602 618 c-24 -24 -6 -108 23 -108 14 0 34 34 35 58 0 50 -31 77
-58 50z m28 -43 c0 -59 -15 -59 -16 0 0 25 3 45 8 45 4 0 8 -20 8 -45z"/>
</g>
</svg>
